<?xml version="1.0" encoding="UTF-8"?><svg id="Layer_1" xmlns="http://www.w3.org/2000/svg" width="222.24" height="60" xmlns:xlink="http://www.w3.org/1999/xlink" viewBox="0 0 222.24 60"><defs><style>.cls-1{fill:url(#linear-gradient);}.cls-2{fill:#231f20;}</style><linearGradient id="linear-gradient" x1="218.45" y1="51.96" x2="195.14" y2="-5.73" gradientUnits="userSpaceOnUse"><stop offset="0" stop-color="#4e61ac"/><stop offset=".24" stop-color="#5e60aa"/><stop offset=".72" stop-color="#895da6"/><stop offset="1" stop-color="#a65ca4"/></linearGradient></defs><path class="cls-2" d="M17,16.21v7.81c0,1.06-.88,1.89-1.94,1.88-3.91-.04-6.16,2.96-6.06,7.51v11.71c0,1.04-.84,1.88-1.88,1.88H1.88c-1.04,0-1.88-.84-1.88-1.88V17H7.12c1.04,0,1.88,.84,1.88,1.88v2.12c1.48-2.57,3.94-4.95,6.74-4.95,.41,0,.83,.05,1.26,.16Z"/><path class="cls-2" d="M34.71,16.14c-8.53-.18-15.6,6.97-15.4,15.5,0,4.88,1.4,8.76,4.22,11.64,2.81,2.88,6.59,4.33,11.35,4.33,5.52,0,9.8-1.96,12.85-5.87,.8-1.03,.36-2.55-.89-2.96l-4.59-1.53c-.75-.25-1.57,.02-2.07,.63-3.92,4.76-11.42,3.02-11.73-3.88h19.72c1.05,0,1.9-.86,1.87-1.91-.24-8.58-6.37-16.06-15.33-15.95Zm-6.52,11.86c.42-3.52,2.87-5.68,6.37-5.66,3.02,0,4.95,1.89,5.8,5.66h-12.17Z"/><path class="cls-2" d="M76,19.63v4.6c0,1.28-1.25,2.18-2.47,1.79-4.03-1.3-7.39-1.94-10.44,.77-2.45,2.27-2.47,7.41-.02,9.7,2.81,2.52,5.83,2.15,9.44,.97,1.23-.4,2.49,.49,2.49,1.78v5.14c0,.76-.47,1.44-1.18,1.75-6.59,2.83-12.94,1.73-17.85-2.94-6.06-5.56-6.02-16.82-.33-22.5,5.05-5.36,12.18-5.33,19.09-2.84,.76,.27,1.27,.98,1.27,1.78Z"/><path class="cls-2" d="M89.83,5.62c-.23,7.48-11.02,7.48-11.25,0,.25-7.42,11-7.42,11.25,0Z"/><path class="cls-2" d="M89,18.88v26.24c0,1.04-.84,1.88-1.88,1.88h-5.24c-1.04,0-1.88-.84-1.88-1.88V17h7.12c1.04,0,1.88,.84,1.88,1.88Z"/><path class="cls-2" d="M113.4,15.91c-4.24,.02-6.66,1.69-9.26,5.09h-.14v-2.12c0-1.04-.84-1.88-1.88-1.88h-7.12V58.12c0,1.04,.84,1.88,1.88,1.88h5.24c1.04,0,1.88-.84,1.88-1.88v-16.12h.28c8.47,11.72,22.45,3.06,22.24-9.72,.2-7.87-5.08-16.4-13.12-16.37Zm-2.19,23.59c-6.09,.06-8.58-8.03-4.75-12.18,4.16-4.8,11.06-.68,10.86,5.11,.07,3.79-2.3,7.09-6.11,7.07Z"/><rect class="cls-2" x="131" width="9" height="47" rx="1.88" ry="1.88"/><path class="cls-2" d="M158.71,16.14c-8.53-.18-15.6,6.97-15.4,15.5,0,4.88,1.4,8.76,4.22,11.64,2.81,2.88,6.59,4.33,11.35,4.33,5.52,0,9.8-1.96,12.85-5.87,.8-1.03,.36-2.55-.89-2.96l-4.59-1.53c-.75-.25-1.57,.02-2.07,.63-3.92,4.76-11.42,3.02-11.73-3.88h19.7c1.06,0,1.92-.87,1.89-1.92-.24-8.58-6.37-16.05-15.33-15.94Zm-5.73,11.86c.42-3.52,2.86-5.68,6.36-5.66,3.02,0,4.96,1.89,5.8,5.66h-12.16Z"/><path class="cls-1" d="M206.17,2.44c-9.15-.22-17.64,6.44-17.51,15.68-.2,8,6.09,15.19,14.13,15.04h3.79l-8.7,11.84c-.91,1.24-.02,3,1.52,3h7.21c.63,0,1.2-.31,1.56-.83,5.48-8.07,14.07-17.93,14.07-28.38,.15-9.42-6.65-16.49-16.07-16.35Zm-5.28,21.55c-2.68-2.57-2.63-7.26-.02-9.91,4.14-4.66,12.13-1.03,11.88,4.99,.12,5.98-7.71,9.31-11.86,4.92Z"/></svg>