<?xml version="1.0" encoding="UTF-8"?><svg id="Layer_1" xmlns="http://www.w3.org/2000/svg" width="296.26" height="146.96" xmlns:xlink="http://www.w3.org/1999/xlink" viewBox="0 0 296.26 146.96"><defs><style>.cls-1{fill:#868693;}.cls-2{fill:none;}.cls-3{fill:url(#linear-gradient);}</style><linearGradient id="linear-gradient" x1="244.75" y1="93.21" x2="221.44" y2="35.52" gradientUnits="userSpaceOnUse"><stop offset="0" stop-color="#4e61ac"/><stop offset=".24" stop-color="#5e60aa"/><stop offset=".72" stop-color="#895da6"/><stop offset="1" stop-color="#a65ca4"/></linearGradient></defs><path class="cls-2" d="M185.64,63.59c-3.5-.02-5.94,2.14-6.36,5.66h12.16c-.84-3.77-2.78-5.66-5.8-5.66Z"/><path class="cls-2" d="M60.86,63.59c-3.5-.02-5.95,2.14-6.37,5.66h12.17c-.85-3.77-2.78-5.66-5.8-5.66Z"/><path class="cls-2" d="M227.17,55.33c-2.61,2.65-2.66,7.34,.02,9.91,4.15,4.39,11.98,1.06,11.86-4.92,.25-6.02-7.74-9.65-11.88-4.99Z"/><path class="cls-2" d="M132.76,68.57c-3.83,4.15-1.34,12.24,4.75,12.18,3.81,.02,6.18-3.28,6.11-7.07,.2-5.79-6.7-9.91-10.86-5.11Z"/><path class="cls-1" d="M35.3,62.25v-2.12c0-1.04-.84-1.88-1.88-1.88h-7.12v28.12c0,1.04,.84,1.88,1.88,1.88h5.24c1.04,0,1.88-.84,1.88-1.88v-11.71c-.1-4.55,2.15-7.55,6.06-7.51,1.06,.01,1.94-.82,1.94-1.88v-7.81c-.43-.11-.85-.16-1.26-.16-2.8,0-5.26,2.38-6.74,4.95Z"/><path class="cls-1" d="M61.01,57.39c-8.53-.18-15.6,6.97-15.4,15.5,0,4.88,1.4,8.76,4.22,11.64,2.81,2.88,6.59,4.33,11.35,4.33,5.52,0,9.8-1.96,12.85-5.87,.8-1.03,.36-2.55-.89-2.96l-4.59-1.53c-.75-.25-1.57,.02-2.07,.63-3.92,4.76-11.42,3.02-11.73-3.88h19.72c1.05,0,1.9-.86,1.87-1.91-.24-8.58-6.37-16.06-15.33-15.95Zm-6.52,11.86c.42-3.52,2.87-5.68,6.37-5.66,3.02,0,4.95,1.89,5.8,5.66h-12.17Z"/><path class="cls-1" d="M101.03,59.1c-6.91-2.49-14.04-2.52-19.09,2.84-5.69,5.68-5.73,16.94,.33,22.5,4.91,4.67,11.26,5.77,17.85,2.94,.71-.31,1.18-.99,1.18-1.75v-5.14c0-1.29-1.26-2.18-2.49-1.78-3.61,1.18-6.63,1.55-9.44-.97-2.45-2.29-2.43-7.43,.02-9.7,3.05-2.71,6.41-2.07,10.44-.77,1.22,.39,2.47-.51,2.47-1.79v-4.6c0-.8-.51-1.51-1.27-1.78Z"/><path class="cls-1" d="M104.88,46.87c.23,7.48,11.02,7.48,11.25,0-.25-7.42-11-7.42-11.25,0Z"/><path class="cls-1" d="M113.42,58.25h-7.12v28.12c0,1.04,.84,1.88,1.88,1.88h5.24c1.04,0,1.88-.84,1.88-1.88v-26.24c0-1.04-.84-1.88-1.88-1.88Z"/><path class="cls-1" d="M139.7,57.16c-4.24,.02-6.66,1.69-9.26,5.09h-.14v-2.12c0-1.04-.84-1.88-1.88-1.88h-7.12v41.12c0,1.04,.84,1.88,1.88,1.88h5.24c1.04,0,1.88-.84,1.88-1.88v-16.12h.28c8.47,11.72,22.45,3.06,22.24-9.72,.2-7.87-5.08-16.4-13.12-16.37Zm-2.19,23.59c-6.09,.06-8.58-8.03-4.75-12.18,4.16-4.8,11.06-.68,10.86,5.11,.07,3.79-2.3,7.09-6.11,7.07Z"/><rect class="cls-1" x="157.3" y="41.25" width="9" height="47" rx="1.88" ry="1.88"/><path class="cls-1" d="M185.01,57.39c-8.53-.18-15.6,6.97-15.4,15.5,0,4.88,1.4,8.76,4.22,11.64,2.81,2.88,6.59,4.33,11.35,4.33,5.52,0,9.8-1.96,12.85-5.87,.8-1.03,.36-2.55-.89-2.96l-4.59-1.53c-.75-.25-1.57,.02-2.07,.63-3.92,4.76-11.42,3.02-11.73-3.88h19.7c1.06,0,1.92-.87,1.89-1.92-.24-8.58-6.37-16.05-15.33-15.94Zm-5.73,11.86c.42-3.52,2.86-5.68,6.36-5.66,3.02,0,4.96,1.89,5.8,5.66h-12.16Z"/><path class="cls-3" d="M232.47,43.69c-9.15-.22-17.64,6.44-17.51,15.68-.2,8,6.09,15.19,14.13,15.04h3.79l-8.7,11.84c-.91,1.24-.02,3,1.52,3h7.21c.63,0,1.2-.31,1.56-.83,5.48-8.07,14.07-17.93,14.07-28.38,.15-9.42-6.65-16.49-16.07-16.35Zm-5.28,21.55c-2.68-2.57-2.63-7.26-.02-9.91,4.14-4.66,12.13-1.03,11.88,4.99,.12,5.98-7.71,9.31-11.86,4.92Z"/></svg>