<?xml version="1.0" encoding="UTF-8"?><svg id="Layer_2" xmlns="http://www.w3.org/2000/svg" width="145.93mm" height="34.52mm" xmlns:xlink="http://www.w3.org/1999/xlink" viewBox="0 0 413.65 97.86"><defs><style>.cls-1{fill:url(#linear-gradient);}.cls-2{fill:#231f20;}</style><linearGradient id="linear-gradient" x1="350.52" y1="15.03" x2="395.47" y2="47.82" gradientUnits="userSpaceOnUse"><stop offset="0" stop-color="#2670b8"/><stop offset="1" stop-color="#64489d"/></linearGradient></defs><g id="Layer_1-2"><g><path class="cls-2" d="M0,77.41V22.86H14.74v9.52h.57c1-3.39,2.68-5.95,5.03-7.69,2.35-1.74,5.07-2.61,8.13-2.61,.76,0,1.58,.05,2.46,.14,.88,.09,1.65,.23,2.32,.39v13.42c-.71-.21-1.7-.4-2.96-.57-1.26-.17-2.41-.25-3.46-.25-2.24,0-4.23,.48-5.98,1.44-1.75,.96-3.13,2.29-4.14,4-1.01,1.7-1.52,3.67-1.52,5.9v30.86H0Z"/><path class="cls-2" d="M88.62,54.01v-4.15c0-4.64-.65-8.7-1.96-12.17-1.31-3.47-3.13-6.35-5.48-8.64-2.34-2.3-5.08-4.02-8.2-5.17-3.13-1.15-6.5-1.72-10.12-1.72-5.37,0-10.05,1.18-14.04,3.55-3.98,2.36-7.07,5.67-9.26,9.9-2.18,4.24-3.28,9.17-3.28,14.78s1.1,10.73,3.28,14.93c2.19,4.2,5.31,7.45,9.37,9.73,4.05,2.29,8.9,3.43,14.54,3.43,4.52,0,8.51-.7,11.97-2.08,3.46-1.39,6.29-3.33,8.49-5.82,2.2-2.5,3.66-5.43,4.37-8.79l-14.06-.93c-.52,1.38-1.28,2.54-2.28,3.48-1,.95-2.2,1.66-3.6,2.13-1.41,.48-2.95,.71-4.64,.71-2.55,0-4.75-.53-6.6-1.59-1.86-1.07-3.29-2.58-4.3-4.55-1.01-1.96-1.52-4.3-1.52-6.99v-.04h37.32Zm-35.78-14.75c1-1.77,2.38-3.18,4.15-4.23s3.81-1.58,6.12-1.58,4.16,.48,5.84,1.44c1.67,.96,2.99,2.28,3.94,3.96s1.43,3.61,1.43,5.79h-23c.09-1.96,.6-3.75,1.52-5.38Z"/><path class="cls-2" d="M123.31,78.47c-5.61,0-10.44-1.19-14.47-3.57-4.03-2.38-7.12-5.69-9.28-9.93-2.15-4.24-3.23-9.11-3.23-14.63s1.09-10.49,3.26-14.72c2.18-4.23,5.27-7.53,9.29-9.91,4.02-2.38,8.8-3.57,14.34-3.57,4.78,0,8.97,.86,12.56,2.59,3.59,1.73,6.43,4.16,8.53,7.28s3.25,6.79,3.46,11.01h-14.34c-.4-2.72-1.47-4.92-3.19-6.59s-3.98-2.5-6.76-2.5c-2.35,0-4.41,.63-6.15,1.9-1.75,1.27-3.11,3.11-4.09,5.52-.98,2.41-1.46,5.34-1.46,8.77s.48,6.44,1.45,8.88c.96,2.44,2.32,4.3,4.08,5.58,1.76,1.28,3.82,1.92,6.17,1.92,1.74,0,3.3-.36,4.69-1.07,1.39-.71,2.54-1.75,3.46-3.11,.92-1.36,1.52-3,1.8-4.92h14.34c-.24,4.17-1.37,7.83-3.41,10.99-2.03,3.16-4.83,5.63-8.4,7.4-3.57,1.78-7.79,2.66-12.67,2.66Z"/><path class="cls-2" d="M165.19,15.83c-2.26,0-4.19-.75-5.8-2.25s-2.41-3.31-2.41-5.42,.8-3.88,2.41-5.38,3.54-2.26,5.8-2.26,4.19,.75,5.8,2.26,2.41,3.3,2.41,5.38-.8,3.91-2.41,5.42-3.54,2.25-5.8,2.25Zm-7.64,61.58V22.86h15.2v54.55h-15.2Z"/><path class="cls-2" d="M184.89,97.86V22.86h14.99v9.16h.68c.67-1.47,1.64-2.97,2.91-4.49,1.27-1.53,2.94-2.81,5-3.84,2.06-1.03,4.62-1.54,7.69-1.54,4,0,7.68,1.04,11.06,3.11,3.38,2.07,6.08,5.18,8.1,9.34,2.02,4.15,3.03,9.36,3.03,15.61s-.98,11.22-2.94,15.39c-1.96,4.18-4.63,7.34-7.99,9.48-3.37,2.14-7.13,3.21-11.29,3.21-2.95,0-5.45-.49-7.51-1.46-2.06-.97-3.74-2.2-5.05-3.68-1.31-1.48-2.31-2.98-3-4.49h-.46v29.19h-15.2Zm14.88-47.73c0,3.24,.45,6.07,1.36,8.49,.9,2.42,2.21,4.29,3.92,5.63,1.71,1.34,3.79,2.01,6.24,2.01s4.57-.68,6.28-2.04c1.71-1.36,3.01-3.25,3.91-5.68,.89-2.43,1.34-5.23,1.34-8.4s-.44-5.92-1.32-8.31c-.88-2.39-2.18-4.26-3.89-5.61-1.71-1.35-3.82-2.02-6.32-2.02s-4.56,.65-6.26,1.95c-1.7,1.3-3,3.15-3.91,5.54-.9,2.39-1.36,5.21-1.36,8.45Z"/><path class="cls-2" d="M263.63,4.68V77.41h-15.2V4.68h15.2Z"/><path class="cls-2" d="M325.88,54.01v-4.15c0-4.64-.65-8.7-1.96-12.17-1.31-3.47-3.13-6.35-5.47-8.64-2.35-2.3-5.08-4.02-8.21-5.17-3.13-1.15-6.5-1.72-10.12-1.72-5.37,0-10.05,1.18-14.04,3.55-3.98,2.36-7.07,5.67-9.26,9.9-2.18,4.24-3.28,9.17-3.28,14.78s1.1,10.73,3.28,14.93c2.19,4.2,5.32,7.45,9.37,9.73,4.06,2.29,8.9,3.43,14.54,3.43,4.52,0,8.51-.7,11.97-2.08,3.46-1.39,6.29-3.33,8.49-5.82,2.2-2.5,3.66-5.43,4.37-8.79l-14.05-.93c-.53,1.38-1.29,2.54-2.29,3.48-1,.95-2.2,1.66-3.6,2.13-1.41,.48-2.95,.71-4.64,.71-2.55,0-4.75-.53-6.6-1.59-1.86-1.07-3.29-2.58-4.3-4.55-1.01-1.96-1.52-4.3-1.52-6.99v-.04h37.32Zm-35.78-14.75c1-1.77,2.38-3.18,4.15-4.23,1.78-1.05,3.82-1.58,6.12-1.58s4.16,.48,5.84,1.44c1.67,.96,2.99,2.28,3.94,3.96,.95,1.68,1.43,3.61,1.43,5.79h-23c.09-1.96,.6-3.75,1.52-5.38Z"/><path class="cls-1" d="M358.02,26.18c0-5.24,1.19-9.83,3.56-13.76,2.37-3.93,5.62-6.98,9.76-9.15,4.13-2.17,8.87-3.26,14.22-3.26s9.77,1.01,14.03,3.04c4.26,2.03,7.67,4.97,10.23,8.82,2.56,3.85,3.84,8.51,3.84,13.98-.03,2.68-.4,5.36-1.12,8.02-.72,2.66-1.81,5.41-3.26,8.24-1.45,2.83-3.27,5.88-5.47,9.14l-17.76,26.18h-16.3l18.58-27.22c-.95,.25-1.93,.45-2.94,.62s-2.04,.24-3.09,.24c-4.75,0-8.94-1.06-12.59-3.17-3.65-2.11-6.51-5.03-8.58-8.76-2.07-3.73-3.11-8.04-3.11-12.94Zm15.58-.56c0,2.56,.51,4.82,1.54,6.77,1.02,1.95,2.44,3.48,4.25,4.59,1.81,1.11,3.89,1.66,6.24,1.66s4.47-.55,6.29-1.66,3.25-2.63,4.29-4.57,1.56-4.18,1.56-6.71-.51-4.82-1.54-6.79c-1.02-1.96-2.45-3.5-4.29-4.62s-3.94-1.68-6.31-1.68-4.43,.56-6.24,1.68c-1.81,1.12-3.23,2.66-4.25,4.62-1.02,1.96-1.54,4.2-1.54,6.71Z"/></g></g></svg>